#N canvas 101 22 1121 690 10;
#X declare -lib mrpeach;
#X obj 107 182 *~;
#X floatatom 107 119 0 0 0 0 - - -;
#X floatatom 39 122 0 0 0 0 - - -;
#X obj 39 207 +~;
#N canvas 0 22 450 300 (subpatch) 0;
#X array fm-output 441 float 4;
#X coords 0 1.02 440 -1.02 600 230 1 0 0;
#X restore 412 93 graph;
#X msg 84 241 bang;
#X obj 84 265 tabwrite~ fm-output;
#X floatatom 143 166 0 0 0 0 - - -;
#X obj 38 245 osc~;
#X obj 107 144 osc~;
#X text 412 325 --- 0.01 segundo ----;
#X obj 141 200 tgl 15 0 empty empty empty 17 7 0 10 -262144 -1 -1 0
1;
#X obj 141 246 bng 15 250 50 0 empty empty empty 17 7 0 10 -262144
-1 -1;
#X obj 141 215 metro 100;
#N canvas 0 22 450 300 (subpatch) 0;
#X array pitchmod14 131 float 1;
#A 0 0 0 0 0 0 0 0 0 0 0 0 0 0 0 0 0 0 0 0 0 0 0 0 0 0 0 0 0 0 0 0
0 0 0 0 0 0 0 0 0 0 0 0 0 0 0 0 0 0 0 0 0 0 0 0 0 0 0 0 0 0 0 0 0 0
0 0 0 0 0 0 0 0 0 0 0 0 0 0 0 0 0 0 0 0 0 0 0 0 0 0 0 0 0 0 0 0 0 0
0 0 0 0 0 0 0 0 0 0 0 0 0 0 0 0 0 0 0 0 0 0 0 0 0 0 0 0 0 0 0 0;
#X coords 0 1.02 130 -1.02 300 230 1 0 0;
#X restore 414 398 graph;
#X floatatom 41 418 4 0 0 0 - - -;
#X floatatom 74 510 4 0 0 0 - - -;
#X obj 41 486 *~;
#X floatatom 70 486 4 0 0 0 - - -;
#X obj 41 510 +~;
#X obj 41 532 osc~;
#X obj 41 451 tabosc4~ pitchmod14;
#X obj 235 95 vsl 30 228 10 60 0 0 empty empty empty 0 -9 0 10 -191407
-262144 -1 0 1;
#X obj 235 331 s val1;
#X obj 39 99 r val1;
#X obj 284 95 vsl 30 228 20 127 0 0 empty empty empty 0 -9 0 10 -191407
-262144 -1 0 1;
#X obj 284 331 s val2;
#X obj 143 144 r val3;
#X obj 107 97 r val2;
#X obj 331 95 vsl 30 228 20 127 0 0 empty empty empty 0 -9 0 10 -191407
-262144 -1 0 1;
#X obj 331 331 s val3;
#X obj 38 317 output~;
#X obj 41 572 output~;
#X obj 41 395 r val1b;
#X obj 103 486 r val2b;
#X obj 105 510 r val3b;
#X obj 238 402 vsl 30 228 0 127 0 0 empty empty empty 0 -9 0 10 -191407
-262144 -1 0 1;
#X obj 287 402 vsl 30 228 0 127 0 0 empty empty empty 0 -9 0 10 -191407
-262144 -1 0 1;
#X obj 334 402 vsl 30 228 0 127 0 0 empty empty empty 0 -9 0 10 -191407
-262144 -1 0 1;
#X obj 162 244 s bang;
#X obj 84 219 r bang;
#X obj 238 638 s val1b;
#X obj 287 638 s val2b;
#X obj 334 638 s val3b;
#X text 39 69 FM1__________________;
#X text 43 375 FM2__________________;
#X obj 470 -39 hsl 235 70 0 200 0 0 empty empty Cymatics_gen 25 35
1 20 -191407 -191407 -262144 0 1;
#X floatatom 50 16 5 0 0 0 - - -;
#X floatatom 164 15 5 0 0 0 - - -;
#X floatatom 216 15 5 0 0 0 - - -;
#X floatatom 108 15 5 0 0 0 - - -;
#X obj 123 -89 import mrpeach;
#X floatatom 265 15 5 0 0 0 - - -;
#X floatatom 319 15 5 0 0 0 - - -;
#X obj 49 34 s datos1;
#X obj 108 34 s datos2;
#X obj 166 34 s datos3;
#X obj 50 -113 route /groupclient/ping;
#X obj 50 -89 print ping;
#X obj 50 -156 unpackOSC;
#X obj 69 -134 print rede;
#X obj 222 34 s datos4;
#X obj 279 34 s datos5;
#X obj 337 34 s datos6;
#X obj 210 70 r datos1;
#X obj 272 70 r datos2;
#X obj 329 69 r datos3;
#X obj 213 380 r datos4;
#X obj 51 -176 udpreceive 22244;
#X obj 50 -36 routeOSC /EEGcinthia/F7 /EEGcinthia/FC5 /EEGcinthia/F3
/EEGcinthia/AF3 /EEGcinthia/gyroY /EEGcinthia/gyroX;
#X obj 164 -2 * 30;
#X obj 265 -2 * 120;
#X obj 319 -2 * 200;
#X obj 274 379 r datos3;
#X obj 332 378 r datos2;
#X obj 99 419 tabwrite~ pitchmod14;
#X msg 105 387 bang;
#X obj 152 357 tgl 15 0 empty empty empty 17 7 0 10 -262144 -1 -1 0
1;
#X obj 152 398 bng 15 250 50 0 empty empty empty 17 7 0 10 -262144
-1 -1;
#X obj 152 372 metro 100;
#X obj 173 396 s bang;
#X obj 105 365 r bang;
#X obj 216 -1 * 70;
#X obj 108 -2 * 30;
#X obj 50 -3 * 20;
#X connect 0 0 3 1;
#X connect 1 0 9 0;
#X connect 2 0 3 0;
#X connect 3 0 8 0;
#X connect 5 0 6 0;
#X connect 7 0 0 1;
#X connect 8 0 6 0;
#X connect 8 0 31 0;
#X connect 8 0 31 1;
#X connect 9 0 0 0;
#X connect 11 0 13 0;
#X connect 12 0 39 0;
#X connect 13 0 12 0;
#X connect 15 0 21 0;
#X connect 16 0 19 1;
#X connect 17 0 19 0;
#X connect 18 0 17 1;
#X connect 19 0 20 0;
#X connect 20 0 32 0;
#X connect 20 0 32 1;
#X connect 21 0 17 0;
#X connect 22 0 23 0;
#X connect 24 0 2 0;
#X connect 25 0 26 0;
#X connect 27 0 7 0;
#X connect 28 0 1 0;
#X connect 29 0 30 0;
#X connect 33 0 15 0;
#X connect 34 0 18 0;
#X connect 35 0 16 0;
#X connect 36 0 41 0;
#X connect 37 0 42 0;
#X connect 38 0 43 0;
#X connect 40 0 5 0;
#X connect 47 0 54 0;
#X connect 48 0 56 0;
#X connect 49 0 61 0;
#X connect 50 0 55 0;
#X connect 52 0 62 0;
#X connect 53 0 63 0;
#X connect 57 0 58 0;
#X connect 59 0 57 0;
#X connect 59 0 60 0;
#X connect 59 0 69 0;
#X connect 64 0 22 0;
#X connect 65 0 25 0;
#X connect 66 0 29 0;
#X connect 67 0 36 0;
#X connect 68 0 59 0;
#X connect 69 0 84 0;
#X connect 69 1 83 0;
#X connect 69 2 70 0;
#X connect 69 3 82 0;
#X connect 69 4 71 0;
#X connect 69 5 72 0;
#X connect 70 0 48 0;
#X connect 71 0 52 0;
#X connect 72 0 53 0;
#X connect 73 0 37 0;
#X connect 74 0 38 0;
#X connect 76 0 75 0;
#X connect 77 0 79 0;
#X connect 78 0 80 0;
#X connect 79 0 78 0;
#X connect 81 0 76 0;
#X connect 82 0 49 0;
#X connect 83 0 50 0;
#X connect 84 0 47 0;
