#N canvas -4 23 1279 752 10;
#X declare -lib mrpeach;
#N canvas 0 22 450 300 (subpatch) 0;
#X array fm-output 441 float 4;
#X coords 0 1.02 440 -1.02 350 230 1 0 0;
#X restore -172 260 graph;
#X msg -94 189 bang;
#X obj -94 213 tabwrite~ fm-output;
#X obj -141 160 osc~;
#X text -177 485 --- 0.01 segundo ----;
#X obj -37 156 tgl 15 0 empty empty empty 17 7 0 10 -262144 -1 -1 0
1;
#X obj -37 194 bng 15 250 50 0 empty empty empty 17 7 0 10 -262144
-1 -1;
#X obj -37 171 metro 100;
#X obj -175 189 output~;
#X obj -16 192 s bang;
#X obj -94 167 r bang;
#X obj -171 -198 hsl 350 70 0 200 0 0 empty empty Cymatics_gen 25 35
1 20 -1 -1 -262144 0 1;
#X obj -100 -54 import mrpeach;
#X obj -173 -74 route /groupclient/ping;
#X obj -173 -54 print ping;
#X obj -173 -93 unpackOSC;
#X obj -112 -93 print rede;
#X obj -172 -113 udpreceive 22244;
#X obj -173 -34 routeOSC /EEGcinthia/F7 /EEGcinthia/FC5 /EEGcinthia/F3
/EEGcinthia/AF3 /EEGcinthia/gyroY /EEGcinthia/gyroX;
#X obj 121 -1 gemhead;
#X obj 121 17 pix_video;
#X obj 121 75 pix_texture;
#X obj 121 57 pix_blob 4;
#X msg 98 193 destroy;
#X msg 98 211 reset;
#X obj 98 229 gemwin;
#X obj 96 156 tgl 15 0 empty empty empty 17 7 0 10 -262144 -1 -1 0
1;
#X msg 97 174 create;
#X msg 11 230 dimen 640 480;
#X obj 121 94 square 5;
#X obj 30 157 tgl 15 0 empty empty empty 17 7 0 10 -262144 -1 -1 0
1;
#X obj 30 191 bng 15 250 50 0 empty empty empty 17 7 0 10 -262144 -1
-1;
#X obj 30 172 metro 100;
#X msg -51 129 40;
#X msg -19 129 45;
#X msg 14 129 50;
#X obj -168 16 hsl 128 70 0 127 0 0 empty empty Brain_Waves 10 29 1
15 -1 -1 -262144 11700 1;
#X msg -172 129 20;
#X msg -142 129 25;
#X msg -112 129 30;
#X msg -81 129 35;
#X msg 79 128 60;
#X msg 46 128 55;
#X msg 111 127 65;
#X msg 142 127 70;
#X obj 102 17 bng 15 250 50 0 empty empty empty 17 7 0 10 -262144 -4032
-1;
#X obj -172 114 route 1 2 3 4 5 6 7 8 9 10 11 12 13 14 15 16 17;
#X obj 102 35 bng 15 250 50 0 empty empty empty 17 7 0 10 -262144 -4032
-1;
#X obj 102 53 bng 15 250 50 0 empty empty empty 17 7 0 10 -262144 -4032
-1;
#X obj 102 71 bng 15 250 50 0 empty empty empty 17 7 0 10 -262144 -4032
-1;
#X obj 121 38 pix_rgba;
#X obj 30 212 random 300;
#X obj -29 17 hsl 128 15 0 127 0 0 empty empty Delta_(O.5_to_4Hz) 2
7 0 10 -1 -1 -262144 0 1;
#X obj -29 35 hsl 128 15 0 127 0 0 empty empty Theta_(4_to_8Hz) 2 7
0 10 -1 -1 -262144 0 1;
#X obj -29 53 hsl 128 15 0 127 0 0 empty empty Alpha_(8_to_12Hz) 2
7 0 10 -1 -1 -262144 0 1;
#X obj -29 71 hsl 128 15 0 127 0 0 empty empty Beta_(13_to_30Hz) 2
7 0 10 -1 -1 -262144 0 1;
#X connect 1 0 2 0;
#X connect 3 0 2 0;
#X connect 3 0 8 0;
#X connect 3 0 8 1;
#X connect 5 0 7 0;
#X connect 6 0 9 0;
#X connect 7 0 6 0;
#X connect 10 0 1 0;
#X connect 13 0 14 0;
#X connect 15 0 13 0;
#X connect 15 0 16 0;
#X connect 15 0 18 0;
#X connect 17 0 15 0;
#X connect 18 0 46 0;
#X connect 19 0 20 0;
#X connect 20 0 50 0;
#X connect 21 0 29 0;
#X connect 22 0 21 0;
#X connect 23 0 25 0;
#X connect 24 0 25 0;
#X connect 26 0 25 0;
#X connect 27 0 25 0;
#X connect 28 0 25 0;
#X connect 30 0 32 0;
#X connect 31 0 51 0;
#X connect 32 0 31 0;
#X connect 33 0 3 0;
#X connect 34 0 3 0;
#X connect 35 0 3 0;
#X connect 37 0 3 0;
#X connect 38 0 3 0;
#X connect 39 0 3 0;
#X connect 40 0 3 0;
#X connect 41 0 3 0;
#X connect 42 0 3 0;
#X connect 43 0 3 0;
#X connect 44 0 3 0;
#X connect 46 0 37 0;
#X connect 46 0 45 0;
#X connect 46 1 38 0;
#X connect 46 1 45 0;
#X connect 46 2 39 0;
#X connect 46 2 45 0;
#X connect 46 3 40 0;
#X connect 46 3 47 0;
#X connect 46 4 33 0;
#X connect 46 4 47 0;
#X connect 46 5 34 0;
#X connect 46 5 47 0;
#X connect 46 6 35 0;
#X connect 46 6 47 0;
#X connect 46 7 42 0;
#X connect 46 7 48 0;
#X connect 46 8 41 0;
#X connect 46 8 48 0;
#X connect 46 9 43 0;
#X connect 46 9 48 0;
#X connect 46 10 44 0;
#X connect 46 10 49 0;
#X connect 46 11 49 0;
#X connect 46 12 49 0;
#X connect 46 13 49 0;
#X connect 50 0 22 0;
#X connect 51 0 46 0;
